<svg id="Layer_1" data-name="Layer 1" xmlns="http://www.w3.org/2000/svg" viewBox="0 0 200.69 200.22"><defs><style>.cls-1{fill:#c7c7c7;}</style></defs><title>Untitled-2</title><path class="cls-1" d="M29,29.38Q58.4,0,100,0t71,29.38q29.38,29.38,29.38,70.74T171,170.85q-29.38,29.38-71,29.38T29,170.85Q-0.35,141.47-.35,100.11T29,29.38ZM65.45,163.8a71.14,71.14,0,0,0,34.55,8.7,69.81,69.81,0,0,0,34.31-8.7,71.59,71.59,0,0,0,25.62-23.74q0-9.4-11-16.69a81.89,81.89,0,0,0-24.44-10.81A96.76,96.76,0,0,0,100,109a96.76,96.76,0,0,0-24.44,3.53,81.89,81.89,0,0,0-24.44,10.81q-11,7.29-11.52,16.69A71,71,0,0,0,65.45,163.8Zm55.7-125A28.79,28.79,0,0,0,100,30.08a29.57,29.57,0,0,0-21.39,8.7,28.41,28.41,0,0,0-8.93,21.15,29.18,29.18,0,0,0,8.93,21.39A29.18,29.18,0,0,0,100,90.24a28.41,28.41,0,0,0,21.15-8.93,29.57,29.57,0,0,0,8.7-21.39A28.79,28.79,0,0,0,121.15,38.78Z" transform="translate(0.35)"/></svg>